<svg height="19" viewBox="0 0 114 19" fill="none" xmlns="http://www.w3.org/2000/svg">
<path d="M9.24494 0.255005L11.8641 5.89491L18.0374 6.6431L13.4829 10.8769L14.679 16.9793L9.24494 13.956L3.8109 16.9793L5.00697 10.8769L0.452479 6.6431L6.62573 5.89491L9.24494 0.255005Z" fill="#FFC633"/>
<path d="M33.0468 0.255005L35.666 5.89491L41.8393 6.6431L37.2848 10.8769L38.4809 16.9793L33.0468 13.956L27.6128 16.9793L28.8089 10.8769L24.2544 6.6431L30.4276 5.89491L33.0468 0.255005Z" fill="#FFC633"/>
<path d="M56.8487 0.255005L59.4679 5.89491L65.6412 6.6431L61.0867 10.8769L62.2827 16.9793L56.8487 13.956L51.4147 16.9793L52.6107 10.8769L48.0562 6.6431L54.2295 5.89491L56.8487 0.255005Z" fill="#FFC633"/>
<path d="M80.6506 0.255005L83.2698 5.89491L89.4431 6.6431L84.8886 10.8769L86.0846 16.9793L80.6506 13.956L75.2166 16.9793L76.4126 10.8769L71.8581 6.6431L78.0314 5.89491L80.6506 0.255005Z" fill="#FFC633"/>
<path d="M104.452 0.255005L107.072 5.89491L113.245 6.6431L108.69 10.8769L109.887 16.9793L104.452 13.956L99.0184 16.9793L100.215 10.8769L95.66 6.6431L101.833 5.89491L104.452 0.255005Z" fill="#FFC633"/>
</svg>
